<?xml version="1.0" encoding="utf-8"?>
<!-- Generator: Adobe Illustrator 16.0.4, SVG Export Plug-In . SVG Version: 6.00 Build 0)  -->
<!DOCTYPE svg PUBLIC "-//W3C//DTD SVG 1.1//EN" "http://www.w3.org/Graphics/SVG/1.1/DTD/svg11.dtd">
<svg version="1.1" id="Layer_0_xA0_Image_1_" xmlns="http://www.w3.org/2000/svg" xmlns:xlink="http://www.w3.org/1999/xlink"
	 x="0px" y="0px" width="8362.261px" height="1806.72px" viewBox="0 0 8362.261 1806.72"
	 enable-background="new 0 0 8362.261 1806.72" xml:space="preserve">
<g>
	<path fill-rule="evenodd" clip-rule="evenodd" fill="#FFFFFF" d="M0,743.04c5.843-1.026,43.884-56.464,51.101-64.919
		c27.563-32.287,54.473-63.756,86.321-92.048c66.098-58.716,144.136-122.485,225.491-158.33
		c173.542-76.484,354.539-137.094,535.79-192.623c85.759-26.273,170.642-56.104,256.857-80.749
		c83.946-23.995,186.386-79.391,271.28-44.099c80.841,33.611,120.149,70.765,175.265,134.794
		c6.545,7.603,13.229,50.741-3.532,38.596c-11.256-8.153-27.75-9.415-40.879-12.96c-23.146-6.251-44.785-31.085-65.996-42.948
		c-153.597-85.901-349.18-22.322-501.226,39.089c-191.415,77.312-377.716,174.968-566.37,259.524
		c-86.927,38.961-188.403,78.51-259.298,143.906c-10.799,9.961-48.126,44.173-43.093,59.904
		c7.796,24.378,101.583,7.852,119.649,3.908c62.092-13.556,129.583-6.822,192.518-19.025
		c79.362-15.388,158.153-33.538,239.285-34.74c167.184-2.476,313.583,30.251,475.667,73.229
		c44.735,11.863,90.557,20.569,134.974,33.412c44.188,12.777,57.96,13.421,88.159-22.411
		c44.038-52.252,104.51-120.561,163.407-155.529c74.752-44.381,164.297-74.111,244.468-107.603
		c81.392-34.001,163.636-78.915,249.246-101.072c167.484-43.349,324.821-53.772,495.707-23.509
		c80.164,14.197,154.558,25.547,236.361,23.8c76.694-1.639,68.706-126.796,59.556-183.573
		c-4.686-29.09-13.519-164.308,7.824-164.056c62.708,0.74,49.07,144.792,51.703,187.186c3.405,54.866-4.432,150.347,23.547,200.338
		c30.595,54.676,143.047-74.227,170.525-95.35c41.891-32.201,82.892-65.318,123.773-98.791
		c32.972-26.996,60.497-28.766,101.603-40.786c95.717-27.991,171.888-61.342,264.25-9.5c94.373,52.974-68.3,74.411-97.896,80.083
		c-94.07,18.028-167.317,67.917-252.801,110.844c-56.704,28.476-447.157,256.857-260.738,329.019
		c38.667,14.968,83.576,16.501,123.532,28.142c42.736,12.45,86.13,24.27,129.9,32.563c99.068,18.771,183.456,39.542,284.202,26.487
		c9.476-1.228,80.665,6.593,80.745,1.732c0.523-32.148,3.911-64.161,3.348-96.269c-1.207-68.864,10.008-137.382,13.215-206.172
		c1.323-28.369,1.794-78.187,45.803-67.445c41.665,10.171,82.435,37.588,119.858,57.959
		c86.336,46.992,166.703,125.364,244.379,185.863c158.632,123.549,317.294,248.056,483.816,360.896
		c64.887,43.986,52.898-6.912,43.346-61.59c-16.465-94.225-31.023-188.794-46.887-283.124
		c-5.062-30.11-83.615-475.927-63.533-479.497c70.912-12.603,122.908,78.345,156.379,125.949
		c48.979,69.658,98.143,151.806,161.623,208.863c64.35,57.838,120.592,31.149,179.707-20.204
		c78.797-68.456,166.674-127.969,249.805-191.021c259.135-196.546,657.502-441.373,985.852-280.022
		c68.152,33.489,182.709,111.833,194.939,192.669c11.629,76.855-20.791,149.365-79.893,197.936
		c-32.826,26.977-70.346,49.27-101.684,77.916c-19.355,17.668,34.764,51.011,46.906,60.512
		c66.826,52.289,127.121,112.581,174.049,183.639c34.51,52.257,58.869,174.838,137.061,116.995
		c59.893-44.316,84.221-141.1,85.348-210.589c1.125-69.343,13.156-140.879,19.803-210.038c3.717-38.498,5.959-77.252,14.045-115.145
		c6.299-29.527-37.787-81.449-51.074-105.311c-18.75-33.669-43.473-66.93-42.074-107.246c0.922-26.438,11.604-88.111,42.205-96.391
		c34.568-9.353,65.152,18.789,93.977,31.995c25.744,11.79,36.238-17.296,42.711-35.128c5.627-15.5,22.457-28.866,26.816-40.977
		c43.814,0,26.041,179.612,23.219,210.212c-3.363,36.529-31.854,79.254-18.658,115.971c16.955,47.189,63.541,93.507,91.977,134.436
		c63.516,91.424,125.881,183.598,188.465,275.664c53.945,79.355,96.004,178.45,184.771,225.697
		c82.18,43.741,193.598,60.423,284.74,77.153c26.199,4.809,40.523,76.391,9.117,70.674c-25.766-4.686-122.467-55.562-143.613-42.758
		c1.525-0.914,159.604,93.975,168.615,101.164c75.215,59.973,156.764,106.828,248.24,137.051
		c134.021,44.279,335.729,78.92,462.072-3.775c16.648-10.904-124.643-41.721-138.273-42.234
		c-90.773-3.416,51.965-82.766,89.18-82.756c55.754,0.025,156.572,39.115,161.482,107.607
		c5.281,74.201-91.984,118.816-150.547,147.436c-133.664,65.32-306.545,38.697-438.504-20.074
		c-178.785-79.623-342.197-212.535-502.018-323.656c-144.867-100.725-327.965-93.816-497.498-86.137
		c-40.055,1.814-174.941,0.541-195.338,36.557c-40.797,72.016-63.365,161.328-91.52,239.023
		c-41.014,113.186-78.402,228.779-130.367,337.623c-18.566,38.889-81.119,191.844-135.463,191.844
		c4.145-37.336,2.986-73.611,12.297-110.535c4.293-17.029,50.373-104.689,45.916-112.842c2.039,3.721-216.83,94.857-239.264,100.945
		c-74.586,20.242-150.941,12.682-224.332-9.549c-186.297-56.434-289.816-178.996-313.346-369.189
		c-9.775-79.086,11.07-150.869,54.912-214.352c47.105-68.205,63.738-156.044,76.596-236.299
		c27.41-171.082,52.275-342.294,103.607-508.313c15.412-49.85,50.014-162.043,116.975-167.919
		c13.879-1.22-56.555,230.542-62.574,250.988c-18.605,63.186,111.809,39.209,151.529,37.682
		c86.375-3.323,179.09-15.608,251.086-67.872c32.271-23.428,132.318-99.695,77.412-138.221
		c-81.299-57.075-155.602-116.456-250.725-150.149c-72.928-25.832-143.832-43.275-219.844-20.6
		c-96.844,28.89-127.234,128.292-152.844,215.671c-52.404,178.795-108.775,356.319-160.822,535.203
		c-26.021,89.433-52.055,179.052-72.881,269.869c-20.115,87.711-30.209,187.018-61.434,271.207
		c-3.797,10.232-38.131,43.18-41.828,18.682c-4.451-29.412-8.471-59.854-10.842-89.529c-7.518-94.084,26.734-188.309,52.463-277.135
		c58.201-200.935,117.818-401.628,182.174-600.746c8.557-26.479,85.086-222.544,56.645-232.887
		c-65.572-23.843-188.979,66.787-239.846,98.204c-136.223,84.132-270.248,183.271-376.129,304.228
		c-27.201,31.072-56.59,61.212-77.49,97.122c-23.002,39.52-38.297,17.275-74.771-0.551
		c-28.879-14.113-253.533-108.709-252.793-121.579c-9.531,167.378-3.406,350.184,32.764,514.581
		c22.795,103.607,118.588,8.25,161.969-27.926c20.275-16.906,21.006,52.463,20.068,60.408c-4.551,38.566-1.23,82.463-42.244,95.66
		c-28.57,9.193-79.779,7.824-102.842,29.062c-25.07,23.084-15.625,76.072-21.445,106.186c-5.559,28.787,5.461,59.453-35.885,58.301
		c-9.891-0.273-32.426-93.607-36.51-103.793c-15.787-39.369-16.273-58.924-17.562-99.66c-0.957-30.297-47.18-69.17-67.074-86.645
		c-74.176-65.137-164.262-101.289-259.562-123.457c-140.547-32.687-300.598-22.555-442.064-3.76
		c-58.259,7.74-143.95-7.981-161.942,61.971c-23.95,93.109-63.414,185.846-97.217,275.82c-12.084,32.17-18.083-13.834-16.31-24.945
		c7.376-46.227,17.693-91.803,27.292-137.625c7.702-36.768,18.584-72.998,25.766-109.744c7.252-37.121-69.278-47.181-95.622-63.889
		c-86.838-55.074-177.089-99.106-275.203-130.871c-40.681-13.171-203.427-64.954-230.333-3.5
		c-28.913,66.027,1.313,170.145,6.499,239.027c2.544,33.805,29.183,204.223-20.681,215.959
		c-23.973,5.639-64.11-360.486-70.883-400.417c-7.271-42.849-11.864-86.261-13.618-129.68c-1.053-26.072,4.182-46.047-27.981-37.674
		c-37.387,9.732-75.633,41.768-110.232,59.502c-52.44,26.88-104.466,54.462-158.263,78.576
		c-190.305,85.307-388.856,144.568-592.45,187.473c-70.01,14.754-154.315,21.246-182.814,96.449
		c-36.577,96.52-45.45,190.422-107.067,277.602c-98.348,139.148-274.682,191.746-432.886,130.766
		c-137.406-52.963-320.116-191.346-282.527-357.074c18.969-83.633,49.942-165.604,108.633-229.66
		c46.828-51.114,139.704-103.479,198.304-40.697c76.866,82.354-23.691,58.363-75.922,78.289
		c-77.521,29.572-154.33,92.188-185.827,171.678c-22.138,55.871,24.874,125.008,59.934,165.07
		c47.524,54.301,125.628,84.277,193.101,103.818c125.922,36.453,274.705,4.379,376.935-76.061
		c50.261-39.545,84.562-123.238,91.149-185.881c8.312-79.047-69.943-73.146-127.475-82.488
		c-70.527-11.449-140.803-25.963-203.319-63.102c-56.719-33.695-75.547-96.264-94.791-156.164
		c-6.51-20.262-2.563-31.016,1.038-50.908c1.615-8.924-67.53-25.976-76.735-29.183c-65.783-22.918-139.621-33.679-208.215-43.168
		C886.547,770.701,774.81,761.127,660,755.33c-127.146-6.421-250.536,39.902-375.426,57.014
		c-56.197,7.702-109.794,18.394-166.381,6.231C82.92,810.994,0,794.708,0,743.04C1.643,742.751,0,744.32,0,743.04z
		 M5981.607,1585.136c119.652-5.033,228.012-37.148,313.555-126.248c95.441-99.408,125.092-234.494,137.734-367.031
		c5.824-61.139-39.299-107.6-71.328-154.869c-39.768-58.688-78.986-118.032-121.492-174.802
		c-80.547-107.578-198.527-124.319-325.779-133.343c-36.602-2.596-116.611-33.703-149.4-15.711
		c-36.107,19.827-37.652,91.715-48.611,129.444c-20.508,70.592-41.566,141.452-58.58,212.973
		c-6.156,25.864,3.438,38.677,24.771,51.224c6.289,3.698,60.748,31.438,59.066,32.909c-42.791,37.418-85.305,64.162-99.428,122.4
		c-10.963,45.162,16.125,110.504-0.617,151.678c-0.916,2.256-37.391,101.205-42.832,61.135
		c-2.16-15.963-15.084-167.057-24.115-168.461c-15.385-2.422-10.395,105.521-8.689,114.164
		c11.264,57.143,25.586,103.432,69.625,144.945C5724.557,1549.498,5862.512,1582.945,5981.607,1585.136
		C5989.197,1584.818,5959.115,1584.722,5981.607,1585.136z M2321.329,447.73c-0.255-28.097-172.098,27.262-184.076,31.673
		c-65.998,24.304-131.998,48.605-198.042,72.783c-130.064,47.615-269.634,105.768-383.073,186.522
		c-35.255,25.093-87.415,77.569-94.919,122.771c-5.219,31.465,167.819,84.814,189.421,90.685
		c96.112,26.118,217.624,24.868,315.784,12.444c129.875-16.438,251.519-36.969,374.876-83.233
		c132.474-49.685,278.57-110.751,382.906-208.353c27.87-26.072,95.344-53.703,90.193-100.06
		c-6.124-55.128-108.957-78.353-152.949-91.556C2550.422,448.082,2436.168,445.964,2321.329,447.73
		C2321.328,447.623,2338.283,447.469,2321.329,447.73z M6648.1,793.524c3.355,62.525,30.842,53.071,83.35,64.21
		c49.863,10.58,101.744,15.136,152.135,23.238c20.5,3.297,113.447,31.738,127.045,12.816
		c11.756-16.342-95.057-141.643-108.537-159.805c-42.061-56.677-83.811-113.567-125.414-170.583
		c-18.477-25.322-38.385-50.09-55.375-76.444c-6.814-10.569-25.023-53.805-30.064-18.08
		C6676.309,574.785,6650.291,687.046,6648.1,793.524C6648.34,798,6648.416,778.155,6648.1,793.524z M4010.743,849.656
		c-64.812-79.427-148.805-156.766-233.871-213.89c-11.324-7.604-128.571-76.168-130.445-61.879
		c-6.788,51.74-3.995,106.008-5.947,158.175c-1.327,35.433-19.349,118.561,6.103,146.243c21.155,23.008,79.7,10.895,108.108,14.925
		C3802.484,900.008,4008.264,913.603,4010.743,849.656C4009.881,848.6,4010.544,854.77,4010.743,849.656z M1547.64,1026.912
		c49.585,0,15.638-20.568-2.422-40.229c-23.663-25.754-76.154-40.607-106.93-57.716c-47.148-26.208-62.748-7.689-32.77,29.062
		C1438.365,998.3,1495.741,1025.31,1547.64,1026.912C1549.24,1026.912,1534.791,1026.515,1547.64,1026.912z M6680.076,186.06
		c-0.566-25.44-42.27-71.208-50.021-26.117C6624.756,190.774,6680.707,245.091,6680.076,186.06
		C6679.805,173.852,6680.148,192.902,6680.076,186.06z M6482.709,1048.23c-8.068,19.604,1.225,118.582-10.889,125.889
		C6496.031,1159.546,6531.383,1051.792,6482.709,1048.23C6482.41,1048.955,6483.59,1048.294,6482.709,1048.23z"/>
	<path fill-rule="evenodd" clip-rule="evenodd" fill="#FFFFFF" d="M2229.01,1434.884c-53.085,0-105.099-5.42-156.952-16.951
		c-31.872-7.09-149.72-12.252-159.097-48.959c-10.673-41.783,338.846-106.049,369.388-113.246
		c45.67-10.762,97.945-26.354,145.1-26.902c43.213-0.498,180.542,29.072,136.958,100.658
		c-25.616,42.076-123.485,70.629-166.795,81.686C2381.264,1415.345,2229.113,1442.451,2229.01,1434.884
		C2226.452,1434.884,2229.009,1434.812,2229.01,1434.884z"/>
</g>
</svg>
